<?xml version="1.0" encoding="utf-8"?>
<svg width="24px" height="24px" viewBox="0 0 24 24" version="1.1" xmlns:xlink="http://www.w3.org/1999/xlink" xmlns="http://www.w3.org/2000/svg">
  <g id="vuesaxbrokencalendar" fill-opacity="1">
    <path d="M29035 6141L29035 6141L29035 6165L29011 6165L29011 6141L29035 6141Z" id="vuesaxbrokencalendar" fill="none" stroke="none" />
    <g id="vuesaxbrokencalendar">
      <g id="calendar">
        <path d="M8 2L8 5" id="Vector" fill="none" fill-rule="evenodd" stroke="#292D32" stroke-width="1.5" stroke-linecap="round" stroke-linejoin="round" />
        <path d="M16 2L16 5" id="Vector" fill="none" fill-rule="evenodd" stroke="#292D32" stroke-width="1.5" stroke-linecap="round" stroke-linejoin="round" />
        <path d="M3.5 9.08984L20.5 9.08984" id="Vector" fill="none" fill-rule="evenodd" stroke="#292D32" stroke-width="1.5" stroke-linecap="round" stroke-linejoin="round" />
        <path d="M3 13.01L3 8.5C3 5.5 4.5 3.5 8 3.5L16 3.5C19.5 3.5 21 5.5 21 8.5L21 17C21 20 19.5 22 16 22L8 22C4.5 22 3 20 3 17" id="Vector" fill="none" stroke="#292D32" stroke-width="1.5" stroke-linecap="round" stroke-linejoin="round" />
        <path d="M24 0L24 24L0 24L0 0L24 0Z" id="Vector" fill="none" fill-rule="evenodd" stroke="none" />
        <path d="M15.6937 13.7L15.7027 13.7" id="Vector" fill="none" fill-rule="evenodd" stroke="#292D32" stroke-width="2" stroke-linecap="round" stroke-linejoin="round" />
        <path d="M15.6937 16.7L15.7027 16.7" id="Vector" fill="none" fill-rule="evenodd" stroke="#292D32" stroke-width="2" stroke-linecap="round" stroke-linejoin="round" />
        <path d="M11.9945 13.7L12.0035 13.7" id="Vector" fill="none" fill-rule="evenodd" stroke="#292D32" stroke-width="2" stroke-linecap="round" stroke-linejoin="round" />
        <path d="M11.9945 16.7L12.0035 16.7" id="Vector" fill="none" fill-rule="evenodd" stroke="#292D32" stroke-width="2" stroke-linecap="round" stroke-linejoin="round" />
        <path d="M8.29529 13.7L8.30427 13.7" id="Vector" fill="none" fill-rule="evenodd" stroke="#292D32" stroke-width="2" stroke-linecap="round" stroke-linejoin="round" />
        <path d="M8.29529 16.7L8.30427 16.7" id="Vector" fill="none" fill-rule="evenodd" stroke="#292D32" stroke-width="2" stroke-linecap="round" stroke-linejoin="round" />
      </g>
    </g>
  </g>
</svg>