<?xml version="1.0" encoding="utf-8"?>
<svg width="24px" height="24px" viewBox="0 0 24 24" version="1.1" xmlns:xlink="http://www.w3.org/1999/xlink" xmlns="http://www.w3.org/2000/svg">
  <g id="vuesaxbrokenhome" fill-opacity="1">
    <path d="M-480 -1162L-480 -1162L-480 -1138L-504 -1138L-504 -1162L-480 -1162Z" id="vuesaxbrokenhome" fill="none" stroke="none" />
    <g id="vuesaxbrokenhome">
      <g id="home">
        <path d="M12 18L12 15" id="Vector" fill="none" stroke="#FFFFFF" stroke-width="1.5" stroke-linecap="round" stroke-linejoin="round" />
        <path d="M20.6393 19.2401C20.3993 20.6501 19.0293 21.8101 17.5993 21.8101L6.39929 21.8101C4.95929 21.8101 3.59929 20.6601 3.35929 19.2401L2.02929 11.2801C1.85929 10.3001 2.35929 8.99009 3.13929 8.37009L10.0693 2.82009C11.1293 1.97009 12.8593 1.97009 13.9293 2.83009L20.8593 8.37009C21.6293 8.99009 22.1293 10.3001 21.9693 11.2801L21.3493 15.0001" id="Vector" fill="none" stroke="#FFFFFF" stroke-width="1.5" stroke-linecap="round" stroke-linejoin="round" />
        <path d="M24 0L24 24L0 24L0 0L24 0Z" id="Vector" fill="none" fill-rule="evenodd" stroke="none" />
      </g>
    </g>
  </g>
</svg>