<?xml version="1.0" encoding="utf-8"?>
<svg width="20px" height="20px" viewBox="0 0 20 20" version="1.1" xmlns:xlink="http://www.w3.org/1999/xlink" xmlns="http://www.w3.org/2000/svg">
  <defs>
    <path d="M-484 -1162L-484 -1162L-484 -1142L-504 -1142L-504 -1162L-484 -1162Z" id="path_1" />
    <clipPath id="clip_1">
      <use xlink:href="#path_1" clip-rule="evenodd" fill-rule="evenodd" />
    </clipPath>
  </defs>
  <g id="seen-3-svgrepo-com(1) 2" clip-path="url(#clip_1)">
    <path d="M-484 -1162L-484 -1162L-484 -1142L-504 -1142L-504 -1162L-484 -1162Z" id="seen-3-svgrepo-com(1)-2" fill="none" stroke="none" />
    <path d="M16.8076 4.36918L8.47425 11.8692C8.14487 12.1657 7.64102 12.1525 7.32759 11.8392L3.16092 7.67251C2.94429 7.46328 2.85741 7.15344 2.93367 6.86209C3.00994 6.57073 3.23747 6.34319 3.52883 6.26693C3.82019 6.19067 4.13002 6.27754 4.33925 6.49417L7.94675 10.1017L15.6968 3.13084C15.9169 2.92461 16.2313 2.85344 16.5188 2.94476C16.8063 3.03609 17.022 3.27564 17.0827 3.5711C17.1435 3.86657 17.0399 4.1718 16.8118 4.36917L16.8076 4.36918ZM15.6926 8.13084L7.94675 15.1017L4.33925 11.4942C4.01227 11.1784 3.49251 11.1829 3.17107 11.5043C2.84962 11.8258 2.84511 12.3455 3.16092 12.6725L7.32759 16.8392C7.64102 17.1525 8.14487 17.1657 8.47426 16.8692L16.8076 9.36918C17.1388 9.05891 17.1608 8.54067 16.8571 8.20342C16.5535 7.86616 16.0358 7.8339 15.6926 8.13084L15.6926 8.13084Z" id="Shape" fill="#FFFFFF" fill-rule="evenodd" stroke="none" />
  </g>
</svg>