<?xml version="1.0" encoding="utf-8"?>
<svg width="24px" height="24px" viewBox="0 0 24 24" version="1.1" xmlns:xlink="http://www.w3.org/1999/xlink" xmlns="http://www.w3.org/2000/svg">
  <g id="vuesaxbrokenfilter-search" fill-opacity="1">
    <path d="M27501 -1147L27501 -1147L27501 -1123L27477 -1123L27477 -1147L27501 -1147Z" id="vuesaxbrokenfilter-search" fill="none" stroke="none" />
    <g id="vuesaxbrokenfilter-search">
      <g id="filter-search">
        <g id="Group" transform="translate(3.3105469 2)">
          <path d="M2.01953 0L15.3595 0C16.4695 0 17.3795 0.909989 17.3795 2.01999L17.3795 4.23999C17.3795 5.04999 16.8695 6.06 16.3695 6.56" id="Vector" fill="none" stroke="#292D32" stroke-width="1.5" stroke-linecap="round" stroke-linejoin="round" />
          <path d="M11.01 17.0699C11.01 17.6799 10.61 18.4799 10.1 18.7899L8.69 19.7C7.38 20.51 5.56 19.5999 5.56 17.9799L5.56 12.6299C5.56 11.9199 5.16 11.0099 4.75 10.5099L0.909973 6.46994C0.399973 5.95994 0 5.05995 0 4.44995" id="Vector" fill="none" stroke="#292D32" stroke-width="1.5" stroke-linecap="round" stroke-linejoin="round" />
        </g>
        <g id="Group" transform="translate(12.869141 10.120117)">
          <path d="M3.20001 6.39999C1.4327 6.39999 0 4.96732 0 3.20001C0 1.4327 1.4327 0 3.20001 0C4.96732 0 6.40002 1.4327 6.40002 3.20001C6.40002 4.96732 4.96732 6.39999 3.20001 6.39999Z" id="Vector" fill="none" fill-rule="evenodd" stroke="#292D32" stroke-width="1.5" stroke-linecap="round" stroke-linejoin="round" />
          <path d="M7 7L6 6" id="Vector" fill="none" fill-rule="evenodd" stroke="#292D32" stroke-width="1.5" stroke-linecap="round" stroke-linejoin="round" />
        </g>
        <path d="M1.90735e-06 24L1.90735e-06 -1.90735e-06L24 -1.90735e-06L24 24L1.90735e-06 24Z" id="Vector" fill="none" fill-rule="evenodd" stroke="none" />
      </g>
    </g>
  </g>
</svg>