<?xml version="1.0" encoding="utf-8"?>
<svg width="24px" height="24px" viewBox="0 0 24 24" version="1.1" xmlns:xlink="http://www.w3.org/1999/xlink" xmlns="http://www.w3.org/2000/svg">
  <g id="vuesaxbrokentimer" fill-opacity="1">
    <path d="M29035 6141L29035 6141L29035 6165L29011 6165L29011 6141L29035 6141Z" id="vuesaxbrokentimer" fill="none" stroke="none" />
    <g id="vuesaxbrokentimer">
      <g id="timer">
        <path d="M12 8L12 13" id="Vector" fill="none" fill-rule="evenodd" stroke="#292D32" stroke-width="1.5" stroke-linecap="round" stroke-linejoin="round" />
        <path d="M9 2L15 2" id="Vector" fill="none" fill-rule="evenodd" stroke="#292D32" stroke-width="1.5" stroke-linecap="round" stroke-linejoin="round" />
        <path d="M5 8C3.9 9.46 3.25 11.28 3.25 13.25C3.25 18.08 7.17 22 12 22C16.83 22 20.75 18.08 20.75 13.25C20.75 8.42 16.83 4.5 12 4.5C10.74 4.5 9.55 4.76 8.47 5.24" id="Vector" fill="none" stroke="#292D32" stroke-width="1.5" stroke-linecap="round" stroke-linejoin="round" />
        <path d="M24 0L24 24L0 24L0 0L24 0Z" id="Vector" fill="none" fill-rule="evenodd" stroke="none" />
      </g>
    </g>
  </g>
</svg>