<?xml version="1.0" encoding="utf-8"?>
<svg width="400px" height="400px" viewBox="0 0 400 400" version="1.1" xmlns:xlink="http://www.w3.org/1999/xlink" xmlns="http://www.w3.org/2000/svg">
  <defs>
    <path d="M-104 0L-104 0L-104 400L-504 400L-504 0L-104 0Z" id="path_1" />
    <clipPath id="clip_1">
      <use xlink:href="#path_1" clip-rule="evenodd" fill-rule="evenodd" />
    </clipPath>
  </defs>
  <g id="healthy-habits" clip-path="url(#clip_1)">
    <path d="M-104 0L-104 0L-104 400L-504 400L-504 0L-104 0Z" id="healthy-habits" fill="none" stroke="none" />
    <g id="healthy-habits--health-care-habits" transform="translate(31.640892 51.374367)">
      <path d="M50.7771 248.574C29.9231 248.806 13.8411 249.052 5.75911 249.282C-1.4409 249.482 -2.24089 250.282 5.3591 250.482C12.5151 250.642 27.1391 250.706 51.0331 250.7C50.9341 249.993 50.8487 249.284 50.7771 248.573L50.7771 248.574ZM259.509 250.226C259.941 249.368 260.357 248.502 260.757 247.626C295.217 247.732 320.865 248.05 326.959 248.682C328.559 248.682 328.959 249.482 326.959 249.882C324.649 250.246 317.395 250.242 293.937 250.228C285.013 250.222 273.743 250.214 259.509 250.226L259.509 250.226Z" id="table_3_" fill="#191919" fill-rule="evenodd" stroke="none" />
      <path d="M80.1591 110.082C52.7591 110.482 54.3591 109.482 55.1591 111.882C56.3591 115.682 57.1591 119.682 57.7591 123.682C59.3591 133.682 37.5591 110.482 33.1591 110.482C23.5591 110.282 17.5591 112.082 15.3591 103.282C13.3591 95.4816 12.5591 16.2816 12.3591 10.4816C12.1591 5.68164 15.9591 2.08163 20.1591 1.28164C22.7591 0.881634 25.5591 0.881634 28.3591 0.881634C87.3591 0.881634 105.959 -0.318367 113.359 0.0816345C118.359 0.281635 123.559 3.08163 124.159 8.88163C124.559 13.6816 124.159 23.2816 123.759 44.8816C123.559 58.8816 122.759 77.6816 122.759 82.0816C123.159 115.282 123.159 109.282 80.1591 110.082L80.1591 110.082ZM54.9591 122.882C56.3591 122.082 48.7591 107.282 53.7591 107.282C114.759 106.482 116.359 107.482 118.159 103.682C120.559 98.8816 120.559 87.8816 120.359 38.4816C120.159 -1.71838 123.959 3.28162 94.1591 3.28162C22.9591 3.48162 26.3591 3.08162 22.9591 3.68162C12.7591 5.28162 14.7591 17.0816 15.3591 32.4816C17.5591 87.2816 14.3591 106.682 23.1591 107.282C37.7591 108.282 30.7591 104.082 54.9591 122.882L54.9591 122.882ZM57.9591 85.6816C57.9591 103.482 30.9591 103.082 30.7591 85.4816C30.3591 67.4816 57.9591 68.2816 57.9591 85.6816L57.9591 85.6816ZM41.5591 87.2816C42.9591 87.2816 39.5591 89.4816 39.1591 89.8816C38.1591 90.8816 38.1591 91.8816 39.7591 91.8816C44.9591 92.0816 45.3591 91.8816 45.3591 91.2816C45.3591 90.4816 44.1591 90.4816 40.9591 90.4816C39.3591 90.4816 44.1591 87.6816 43.7591 86.4816C43.5591 85.8816 43.1591 86.0816 39.5591 86.2816C39.1591 86.2816 38.7591 86.2816 38.7591 86.6816C38.9591 87.2816 39.3591 87.2816 41.5591 87.2816L41.5591 87.2816ZM47.5591 85.0816C48.1591 85.0816 48.3591 84.0816 47.5591 83.8816C47.1591 83.6816 46.5591 83.8816 46.3591 83.4817C46.1591 83.0817 46.7591 82.8816 47.1591 82.6816C48.1591 82.0816 47.5591 81.0816 46.7591 81.0816C45.7591 81.0816 43.9591 80.4816 43.9591 81.4816C43.9591 82.2816 45.3591 81.4816 45.7591 82.2816C45.5591 82.8816 44.7591 83.0816 44.1591 83.4816C42.7591 85.0816 45.3591 85.2816 47.5591 85.0816L47.5591 85.0816ZM50.1591 78.2816C49.1591 77.8816 51.3591 77.4816 50.5591 76.6816C49.7591 76.4816 48.9591 76.0816 48.1591 76.4816C47.9591 76.6816 47.9591 76.8816 48.1591 77.0816C50.9591 77.6816 47.5591 77.6816 47.9591 78.8816C48.1591 79.4817 48.7591 79.4817 49.3591 79.4817C50.9591 79.4817 51.5591 79.6816 51.7591 79.0817C51.5591 78.0817 50.7591 78.4817 50.1591 78.2817L50.1591 78.2816ZM43.3591 34.0816C25.3591 33.8816 25.1591 7.08163 43.1591 7.48164C61.7591 8.08163 60.9591 34.4816 43.3591 34.0816L43.3591 34.0816ZM35.1591 22.4816C35.3591 25.6816 36.9591 27.2816 38.9591 27.2816C43.9591 27.6816 40.7591 21.6816 45.3591 20.6816C45.7591 20.4816 47.9591 19.4816 47.7591 18.8816C46.9591 17.0816 42.3591 20.6816 41.1591 19.4816C38.5591 17.0816 35.3591 19.2816 35.1591 22.4816L35.1591 22.4816ZM44.3591 18.2816C46.1591 17.8816 47.5591 17.2816 48.1591 18.6816C48.9591 20.4816 45.9591 20.8816 45.3591 21.6816C48.3591 24.2816 51.5591 21.0816 50.5591 17.8816C49.7591 15.4816 45.3591 13.8816 44.3591 18.2816L44.3591 18.2816ZM43.9591 65.2816C25.7591 65.0816 25.1591 38.0816 44.3591 38.6816C61.9591 39.2816 61.5591 65.4816 43.9591 65.2816L43.9591 65.2816ZM50.7591 48.6816C50.3591 45.6816 49.9591 43.0816 48.1591 43.8816C32.9591 51.2816 42.1591 52.8816 38.9591 58.4816C38.7591 58.8816 38.5591 59.4816 39.1591 59.6816C40.5591 60.2816 39.1591 56.0816 43.7591 56.0816C46.9591 56.0816 50.5591 53.2816 50.7591 48.6816L50.7591 48.6816ZM83.1591 84.6816C82.1591 83.4816 83.7591 82.6816 84.3591 83.2816C87.7591 85.8816 87.3591 86.8816 88.5591 84.8816C95.9591 73.4816 95.5591 73.2816 96.3591 73.8816C98.1591 74.8816 90.3591 85.8816 89.5591 87.2816C87.5591 90.2816 85.5591 87.2816 83.1591 84.6816L83.1591 84.6816ZM82.5591 22.0816C81.9591 21.2816 82.5591 20.2816 83.7591 20.6816C86.1591 21.8816 86.5591 24.6816 87.9591 22.6816C95.3591 10.6816 95.3591 10.8816 95.9591 11.0816C97.9591 12.0816 90.1591 23.0816 88.7591 24.8816C86.9591 27.6816 85.1591 24.8816 82.5591 22.0816L82.5591 22.0816ZM97.3591 42.2816C96.9591 44.8816 91.7591 52.8816 90.1591 55.0816C88.1591 57.8816 86.5591 55.4816 83.7591 52.4816C82.5591 51.2816 83.9591 50.2816 84.9591 51.0816C87.5591 53.0816 87.7591 54.6816 88.9591 52.8816C95.9591 41.8816 95.7591 42.0816 96.1591 41.6816C96.7591 41.0816 97.5591 41.4816 97.3591 42.2816L97.3591 42.2816ZM70.3591 53.6816C67.1591 53.6816 65.9591 53.8816 65.9591 52.8816C65.7591 50.8816 76.5591 51.4816 76.5591 52.4816C76.7591 53.6816 70.5591 53.6816 70.3591 53.6816L70.3591 53.6816ZM70.7591 21.4816C79.3591 21.4816 75.3591 24.0816 66.3591 23.4816C65.3591 23.4816 65.1591 22.0816 66.3591 21.8816C67.7591 21.6816 69.1591 21.4816 70.7591 21.4816L70.7591 21.4816ZM70.3591 84.6816C66.9591 84.6816 65.9591 84.8816 65.9591 83.8816C65.9591 82.6816 66.5591 82.8816 74.9591 82.8816C75.3591 82.8816 75.9591 82.8816 76.1591 83.4816C76.3591 84.8816 70.9591 84.6816 70.3591 84.6816L70.3591 84.6816ZM39.5591 25.2816C40.5591 24.4816 40.7591 23.8816 40.5591 22.6816C40.1591 21.4816 39.5591 21.0816 38.3591 20.8816C38.1591 20.8816 37.5591 21.2816 37.3591 20.8816C37.1591 20.4816 37.7591 20.2816 38.1591 20.2816C39.7591 19.4816 42.1591 22.2816 41.1591 24.6816C40.9591 25.2816 40.5591 25.6816 39.9591 25.8816C39.3591 26.2816 37.9591 26.4816 39.5591 25.2816L39.5591 25.2816ZM47.7591 46.0816C47.1591 47.6816 45.7591 48.0816 41.5591 54.6816C40.5591 56.2816 39.5591 55.8816 41.5591 52.4816C43.3591 49.6816 47.3591 45.6816 47.7591 46.0816L47.7591 46.0816Z" id="Group" fill="#583CA0" fill-rule="evenodd" stroke="none" />
      <g id="Group_2" transform="translate(51.465973 37.28083)">
        <path d="M80.8931 197.401C88.4931 245.401 49.6931 268.001 20.8931 248.201C-1.50687 233.001 -3.30686 197.801 3.49313 195.801C3.69313 196.001 10.4931 200.401 15.8931 200.401C16.0931 201.001 16.6931 201.201 17.2931 201.001C23.2931 203.001 29.0931 203.201 35.4931 203.401C71.2931 204.001 79.8931 191.401 80.8931 197.401L80.8931 197.401ZM12.6931 211.401C6.49314 211.801 13.0931 231.201 20.8931 236.201C21.4931 236.601 22.0931 237.401 22.6931 236.801C23.2931 236.201 22.4931 235.601 22.2931 235.001C12.8931 216.401 16.6931 211.601 12.6931 211.401L12.6931 211.401Z" id="Vector_13" fill="#583CA0" fill-rule="evenodd" stroke="none" />
        <path d="M104.493 18.4008C95.8931 8.6008 109.893 -3.5992 123.891 1.0008C129.891 3.0008 130.291 9.6008 128.091 10.0008C126.291 10.4008 114.491 12.8008 113.891 14.6008C119.891 13.4008 125.491 12.0008 130.891 11.8008C154.291 11.4008 157.291 35.8008 161.691 38.8008C161.491 36.0008 158.891 28.0008 155.091 21.2008C154.691 20.4008 154.691 20.0008 155.491 19.4008C162.491 13.0008 171.091 13.8008 177.891 19.2008C190.691 29.4008 181.891 55.2008 163.491 48.2008C162.491 47.8008 166.291 57.8008 158.291 68.0008C157.891 68.6008 157.891 68.8008 158.291 69.2008C167.091 80.0008 149.091 94.2008 140.091 82.2008C136.091 76.8008 138.291 68.0008 149.691 64.8008C161.491 61.6008 157.291 52.2008 146.091 57.8008C131.291 65.0008 139.091 45.6008 138.091 38.0008C137.091 30.2008 133.291 27.4008 128.291 27.6008C124.091 27.6008 120.691 29.0008 115.491 25.6008C111.091 22.6008 106.691 25.8008 102.891 29.6008C99.6911 32.8008 95.6911 48.2008 95.0911 54.8008C92.2911 83.8008 111.691 92.0008 124.891 86.8008C130.491 84.6008 135.091 81.4008 135.891 81.4008C135.691 83.6008 126.691 91.4008 116.691 91.2008C114.291 91.2008 116.291 91.6008 113.491 105.601C112.691 109.601 113.691 111.201 117.291 113.401C127.491 119.601 133.291 113.401 138.691 106.601C139.291 114.201 124.091 125.201 113.091 112.601C111.491 110.601 110.891 108.401 111.691 106.001C112.891 101.401 113.291 96.8008 114.091 92.0008C114.491 89.4008 107.491 92.0008 99.8911 84.0008C99.4911 83.6008 99.2911 83.6008 98.8911 84.0008C95.2911 87.6008 88.6911 86.4008 85.6911 81.8008C80.8911 74.6008 87.6911 67.4008 91.0911 67.2008C95.0911 67.0008 88.6911 59.8008 96.2911 39.2008C98.8911 32.4008 98.8911 33.8008 98.4911 32.2008C96.8911 26.0008 100.291 20.8008 104.491 18.4008L104.493 18.4008ZM149.491 67.8008C138.091 67.6008 136.291 84.8008 148.091 85.2008C159.691 85.6008 161.691 68.2008 149.491 67.8008L149.491 67.8008ZM85.6911 76.4008C85.6911 82.2008 92.0911 86.2008 96.8911 83.0008C99.4911 81.2008 94.8911 81.0008 92.6911 69.2008C92.2911 66.4008 85.8911 70.6008 85.6911 76.4008L85.6911 76.4008ZM175.891 24.4008C176.091 24.0008 175.891 23.6008 175.891 23.4008C175.091 21.6008 173.491 20.6008 171.891 19.8008C167.291 17.0008 162.691 18.2008 162.891 19.2008C162.691 21.0008 164.291 16.8008 175.891 24.4008L175.891 24.4008ZM115.091 3.20081L114.891 3.00081C110.891 3.00081 108.091 5.20081 105.491 7.80081C104.891 8.40081 105.291 9.60081 106.491 8.80081C113.091 4.20081 110.291 5.80081 115.091 3.20081L115.091 3.20081Z" id="Vector_14" fill="#191919" fill-rule="evenodd" stroke="none" />
        <path d="M109.693 177.601C104.893 179.001 102.693 181.401 102.493 187.001C101.493 222.201 126.691 250.801 166.491 242.801C202.891 235.401 230.491 181.001 201.491 136.401C189.691 118.201 173.891 112.801 153.691 105.201C145.891 102.201 144.091 102.201 143.491 101.801C138.491 98.6008 156.693 102.401 173.293 109.401C242.293 139.201 224.291 248.601 151.491 248.001C117.891 247.601 94.6912 217.201 100.491 185.201C102.291 175.001 107.491 178.801 114.891 171.801C120.091 166.801 115.491 175.801 109.691 177.601L109.693 177.601Z" id="Vector_15" fill="#191919" stroke="none" />
        <path d="M51.2931 202.801C50.4931 202.601 49.8931 203.001 49.0931 202.801C46.2931 196.401 35.6931 196.001 36.0931 198.001C36.2931 198.801 36.6931 198.601 37.2931 198.601C40.0931 198.401 45.6931 200.401 45.8931 203.001C43.2931 200.801 36.0931 198.001 36.0931 201.401C36.0931 202.001 35.6931 202.801 35.4931 203.401C33.2931 203.401 33.4931 203.601 33.6931 202.601C36.4931 190.201 17.8931 184.601 15.6931 196.801C15.0931 200.601 17.2931 200.601 14.4931 200.601C12.4931 195.201 15.6931 189.601 22.2931 188.001C21.4931 186.801 21.6931 185.401 21.4931 184.201C20.8931 181.201 19.4931 183.601 16.2931 183.001C12.0931 182.001 14.8931 187.201 9.49313 189.201C7.89314 189.801 10.0931 191.001 10.6931 195.401C9.29313 193.801 8.49313 192.401 7.69313 190.801C6.89313 189.201 5.69313 190.201 4.69313 190.201C2.69313 190.201 4.69313 195.401 5.29313 197.201C3.09313 196.801 2.09313 193.401 2.09313 191.201C2.09313 188.801 3.49313 188.601 5.49313 188.401C12.0931 188.001 3.29314 186.801 11.6931 141.201C12.0931 137.601 13.4931 138.001 22.2931 138.401C36.2931 139.001 38.4931 131.801 40.2931 135.201C41.8931 138.601 60.0931 180.201 56.4931 181.201C54.0931 181.801 43.6931 149.801 38.4931 136.401C25.6931 146.001 14.6931 137.401 14.0931 141.801C11.6931 156.801 11.4931 167.401 10.0931 186.401C12.8931 184.601 10.4931 179.401 16.4931 180.601C19.4931 181.201 21.0931 179.201 22.6931 182.001C24.6931 185.401 22.2931 187.601 24.0931 187.801C33.8931 188.401 34.0931 196.201 35.8931 195.601C39.6931 194.201 42.6931 195.201 46.0931 196.401C47.0931 192.601 47.8931 189.001 49.4931 185.601C49.8931 184.801 50.6931 184.201 50.2931 183.401C47.8931 179.601 46.2931 182.201 43.6931 179.401C42.4931 178.201 41.0931 179.001 39.8931 180.001C34.2931 184.801 31.8931 177.601 30.4931 181.601C29.6931 184.001 30.8931 187.201 29.8931 187.401C27.4931 187.801 27.4931 175.601 33.2931 178.801C35.4931 180.001 36.8931 179.601 38.6931 178.001C43.2931 174.001 44.6931 177.801 47.2931 178.401C51.4931 179.201 51.4931 182.001 52.4931 181.801C56.2931 181.001 54.4931 186.401 57.0931 184.401C61.4931 180.601 61.4931 186.201 65.4931 185.201C71.6931 183.401 71.2931 186.001 78.0931 193.001C78.6931 193.801 79.0931 194.801 79.2931 195.801L76.6931 196.601C75.0931 191.801 73.0931 193.801 71.2931 189.601C70.2931 187.201 68.0931 187.201 65.4931 188.001C60.6931 189.201 61.2931 184.401 58.6931 186.401C57.6931 187.201 55.8931 189.401 54.0931 186.801C52.6931 184.601 53.6931 182.801 48.0931 197.201C47.6931 198.001 50.8931 199.401 51.2931 202.801L51.2931 202.801Z" id="Vector_16" fill="#191919" stroke="none" />
        <path d="M29.2931 89.2008C34.0931 89.0008 35.4931 89.4008 36.2931 91.8008C38.8931 100.401 40.8931 118.601 41.4931 127.601C41.6931 129.201 41.0931 130.201 39.6931 131.001C37.0931 132.201 34.4931 132.801 31.8931 133.001C30.2931 133.201 29.6931 132.401 29.8931 130.801L29.8931 130.601C32.8931 124.201 27.6931 123.201 29.6931 120.401C31.6931 117.801 29.6931 117.201 30.0931 114.201C30.4931 110.001 28.6931 110.601 22.6931 107.001C19.6931 105.001 16.4931 105.601 13.4931 107.201C11.2931 108.401 10.8931 108.201 10.2931 105.601C7.89314 93.6008 7.29314 92.2008 11.8931 91.4008C17.6931 90.4008 23.4931 89.4008 29.2931 89.2008L29.2931 89.2008ZM31.0931 96.8008C34.2931 96.8008 33.4931 92.4008 30.8931 92.6008C27.8931 92.6008 28.4931 96.8008 31.0931 96.8008L31.0931 96.8008ZM26.8931 95.4008C26.6931 93.2008 23.6931 93.4008 23.6931 95.6008C23.6931 97.8008 26.8931 97.6008 26.8931 95.4008L26.8931 95.4008Z" id="Vector_17" fill="#191919" fill-rule="evenodd" stroke="none" />
        <path d="M176.493 145.001C174.693 152.601 168.093 172.201 166.493 176.601C163.893 183.801 162.293 183.401 164.293 184.401C166.293 185.401 175.693 190.401 177.493 193.201C174.293 192.601 167.493 188.201 146.093 179.601C143.493 178.601 119.693 169.601 121.493 167.201C121.893 166.601 122.493 167.001 122.893 167.201C133.693 172.401 149.293 176.601 159.893 182.001C162.093 183.201 160.093 183.401 172.093 153.201C172.293 152.001 175.093 145.401 176.493 145.001L176.493 145.001Z" id="Vector_18" fill="#191919" stroke="none" />
        <path d="M49.2931 143.401C47.8931 142.201 48.6931 140.601 50.2931 136.201C55.0931 123.001 61.2931 116.201 68.8931 110.801C83.0931 100.601 104.493 97.0008 104.293 100.201C104.093 103.001 70.4931 99.6008 52.4931 137.001C51.4931 139.001 50.2931 141.201 49.2931 143.401L49.2931 143.401Z" id="Vector_19" fill="#191919" stroke="none" />
        <path d="M81.4931 141.201C83.0931 135.001 99.0931 128.201 109.493 139.801C116.493 147.401 118.093 165.801 115.893 166.001C113.693 166.001 115.893 145.401 103.493 138.601C95.4931 134.001 85.8931 137.801 81.4931 141.201L81.4931 141.201Z" id="Vector_20" fill="#191919" stroke="none" />
        <path d="M69.6931 166.201C65.8931 168.001 64.6931 171.401 63.2931 174.001C62.8932 174.801 61.8932 174.601 62.0931 173.601C63.6932 167.801 67.2931 164.401 69.2931 164.401C72.4931 164.201 71.4931 160.201 79.2931 148.001C80.0931 146.801 81.2931 145.001 81.8932 145.401C82.2931 145.601 82.0931 146.001 81.8932 146.201C75.0931 161.401 72.0931 163.801 73.2931 164.801C76.8932 167.401 74.8932 171.601 73.4931 175.601C73.2931 176.201 72.8931 177.001 72.0931 176.601C69.8932 175.801 74.4931 170.201 72.4931 166.801C72.2931 166.601 72.0931 166.201 71.8931 166.201C71.2931 166.201 68.6931 175.801 66.8931 175.001C65.8931 174.601 66.4931 174.201 69.6931 166.201L69.6931 166.201Z" id="Vector_21" fill="#191919" stroke="none" />
        <path d="M21.0931 109.201C17.4931 110.001 14.8931 112.201 12.6931 115.001C4.49313 125.001 16.2931 135.601 14.2931 137.001C12.0931 138.601 -1.30687 117.801 15.6931 109.201C18.0931 107.801 19.6931 107.801 21.0931 109.201L21.0931 109.201Z" id="Vector_22" fill="#191919" stroke="none" />
        <path d="M90.8931 159.401C89.8931 156.601 92.2931 152.801 95.2931 151.801C99.6931 150.401 104.093 153.801 103.293 158.601C102.693 163.401 98.0931 168.001 100.893 175.401C102.293 178.801 98.0931 176.601 97.8931 169.801C97.6931 165.401 100.293 162.001 100.893 158.401C101.493 154.201 97.2931 152.601 94.4931 154.801C93.2931 155.601 92.4931 156.801 90.8931 159.401L90.8931 159.401Z" id="Vector_23" fill="#191919" stroke="none" />
        <path d="M87.8931 154.601C86.0931 152.001 88.6931 145.001 95.6931 143.801C99.6931 143.201 105.093 146.201 105.893 149.601C106.093 150.201 105.293 151.201 104.493 150.401C101.893 148.001 99.2931 145.201 95.0931 146.401C91.2931 147.401 89.2931 151.401 87.8932 154.601L87.8931 154.601Z" id="Vector_24" fill="#191919" stroke="none" />
        <path d="M94.2931 138.201C101.893 138.201 103.093 142.401 100.493 141.601C97.8931 140.801 93.6931 139.201 89.4931 143.601C85.2931 148.201 85.2931 148.401 84.6931 148.201C83.4931 147.401 87.4931 138.001 94.2931 138.201L94.2931 138.201Z" id="Vector_25" fill="#191919" stroke="none" />
        <path d="M121.293 125.001C126.893 125.001 126.093 132.601 121.293 132.601C116.693 132.601 116.093 125.001 121.293 125.001L121.293 125.001Z" id="Vector_26" fill="#583CA0" stroke="none" />
        <path d="M132.893 130.401C127.893 130.201 129.093 122.601 133.693 122.601C138.493 122.601 138.093 130.601 132.893 130.401L132.893 130.401Z" id="Vector_27" fill="#583CA0" stroke="none" />
        <path d="M149.293 109.601C149.293 114.601 141.691 113.801 141.691 109.001C141.891 104.001 149.293 104.401 149.293 109.601L149.293 109.601Z" id="Vector_28" fill="#583CA0" stroke="none" />
        <path d="M28.6931 111.801C22.4931 113.801 15.4931 116.601 13.8931 123.001C13.4931 124.401 12.6931 123.801 12.6931 122.801C12.8931 113.401 25.2931 109.001 28.6931 111.801L28.6931 111.801Z" id="Vector_29" fill="#191919" stroke="none" />
        <path d="M104.893 120.601C100.293 120.801 99.0931 113.201 104.493 113.001C106.293 113.001 108.293 114.801 108.293 116.801C108.093 118.801 106.493 120.601 104.893 120.601L104.893 120.601Z" id="Vector_30" fill="#583CA0" stroke="none" />
        <path d="M139.093 104.401C138.893 104.801 138.893 105.401 138.293 105.401C135.893 105.401 136.691 86.6008 138.491 86.8008C140.091 86.8008 139.293 103.601 139.093 104.401L139.093 104.401Z" id="Vector_31" fill="#191919" stroke="none" />
        <path d="M110.893 129.201C106.293 129.201 105.493 122.201 110.293 122.201C115.493 122.401 115.693 129.401 110.893 129.201L110.893 129.201Z" id="Vector_32" fill="#583CA0" stroke="none" />
        <path d="M141.491 115.601C146.491 115.601 146.693 122.601 142.293 122.601C137.893 122.801 136.091 115.601 141.491 115.601L141.491 115.601Z" id="Vector_33" fill="#583CA0" stroke="none" />
        <path d="M122.893 52.6008C126.093 52.6008 128.291 54.8008 130.491 57.4008C130.691 57.6008 131.093 58.2008 130.693 58.6008C129.693 59.4008 127.493 56.8008 123.093 55.8008C120.693 55.2008 118.493 55.6008 118.093 54.6008C117.693 53.4008 121.093 52.6008 122.893 52.6008L122.893 52.6008Z" id="Vector_34" fill="#191919" stroke="none" />
        <path d="M100.093 106.601C100.093 102.201 106.693 102.001 106.493 106.601C106.493 111.201 100.093 111.201 100.093 106.601L100.093 106.601Z" id="Vector_35" fill="#583CA0" stroke="none" />
        <path d="M28.8931 118.001C16.0931 122.001 18.0931 127.001 16.2931 126.201C15.6931 125.801 15.8931 125.201 16.0931 124.801C17.6931 118.401 26.2931 115.401 28.8931 118.001L28.8931 118.001Z" id="Vector_36" fill="#191919" stroke="none" />
        <path d="M108.493 63.8008C106.093 63.8008 102.093 62.2008 104.293 58.4008C105.293 56.8008 107.293 52.6008 108.293 53.0008C108.893 53.2008 108.493 53.8008 108.293 54.2008C106.093 59.6008 104.293 60.8008 110.693 61.8008C112.493 62.2008 111.293 63.8008 108.493 63.8008L108.493 63.8008Z" id="Vector_37" fill="#191919" stroke="none" />
        <path d="M126.693 39.0008C134.893 39.0008 136.293 48.4008 133.693 45.6008C127.493 39.0008 123.693 42.2008 123.293 40.4008C123.093 39.2008 125.693 38.8008 126.693 39.0008L126.693 39.0008Z" id="Vector_38" fill="#191919" stroke="none" />
        <path d="M113.293 72.6008C112.493 72.4008 111.093 73.0008 110.893 71.6008C110.893 70.2008 112.293 70.4008 113.093 70.4008C119.093 69.4008 119.093 65.2008 120.293 65.8008C121.693 66.2008 120.093 72.4008 113.293 72.6008L113.293 72.6008Z" id="Vector_39" fill="#191919" stroke="none" />
        <path d="M29.0931 125.401C21.2931 124.001 19.8931 130.401 18.8931 130.001C17.6931 129.601 18.4931 126.601 20.4931 125.001C23.0931 123.001 28.0931 122.801 29.0931 125.401L29.0931 125.401Z" id="Vector_40" fill="#191919" stroke="none" />
        <path d="M99.0931 50.2008C97.8931 50.2008 97.2931 50.6008 97.0931 50.0008C96.8931 48.8008 101.893 46.4008 105.693 49.6008C106.293 50.0008 107.093 50.6008 106.493 51.6008C105.693 53.0008 104.693 50.2008 99.0931 50.2008L99.0931 50.2008Z" id="Vector_41" fill="#191919" stroke="none" />
        <path d="M100.893 35.6008C109.093 29.0008 113.493 41.0008 108.893 37.6008C105.093 34.8008 102.693 36.0008 100.893 35.6008L100.893 35.6008Z" id="Vector_42" fill="#191919" stroke="none" />
        <path d="M93.6931 125.601C93.0931 127.001 89.6931 135.001 88.0931 134.001C87.4931 133.601 87.6931 133.001 88.0931 132.401C89.8931 128.601 94.0931 123.201 93.6931 125.601L93.6931 125.601Z" id="Vector_43" fill="#191919" stroke="none" />
        <path d="M37.2931 184.201C38.0931 184.201 37.8931 184.401 39.2931 193.801C38.2931 193.801 35.2931 184.201 37.2931 184.201L37.2931 184.201Z" id="Vector_44" fill="#191919" stroke="none" />
        <path d="M17.0931 201.001C17.6931 200.201 18.2931 200.401 23.6931 200.401C23.0931 201.601 21.8931 201.401 21.4931 202.201C19.8931 202.201 18.4931 201.601 17.0931 201.001L17.0931 201.001Z" id="Vector_45" fill="#191919" stroke="none" />
        <path d="M55.2931 200.001C54.6931 199.001 55.0931 199.801 67.0931 190.801C72.6931 186.601 56.8931 203.001 55.2931 200.001L55.2931 200.001Z" id="Vector_46" fill="#191919" stroke="none" />
        <path d="M18.4931 195.801C16.8931 194.201 19.4931 192.201 20.6931 193.801C23.2931 197.001 23.8931 201.001 18.4931 195.801L18.4931 195.801Z" id="Vector_47" fill="#191919" stroke="none" />
        <path d="M28.8931 201.201C28.2931 201.201 27.6931 201.401 27.4931 200.601C27.2931 200.001 27.8931 199.601 28.4931 199.401C30.0931 198.601 32.4931 197.601 32.8931 199.201C32.8931 201.001 30.4931 200.801 28.8931 201.201L28.8931 201.201Z" id="Vector_48" fill="#191919" stroke="none" />
      </g>
    </g>
  </g>
</svg>