<?xml version="1.0" encoding="utf-8"?>
<svg width="14px" height="14px" viewBox="0 0 14 14" version="1.1" xmlns:xlink="http://www.w3.org/1999/xlink" xmlns="http://www.w3.org/2000/svg">
  <defs>
    <path d="M0 0L14 0L14 14L0 14L0 0Z" id="path_1" />
    <clipPath id="clip_1">
      <use xlink:href="#path_1" clip-rule="evenodd" fill-rule="evenodd" />
    </clipPath>
  </defs>
  <g id="fluent:more-vertical-20-regular">
    <path d="M0 0L14 0L14 14L0 14L0 0Z" id="fluent:more-vertical-20-regular-(BackgroundMask)" fill="none" fill-rule="evenodd" stroke="none" />
    <g clip-path="url(#clip_1)">
      <g id="Group" transform="translate(6.125 2.4492188)">
        <path d="M0.256282 1.49372C0.0921872 1.32962 0 1.10706 0 0.875C0 0.642936 0.0921872 0.420376 0.256282 0.256282C0.420376 0.0921872 0.642936 0 0.875 0C1.10706 3.10862e-16 1.32962 0.0921872 1.49372 0.256282C1.65781 0.420376 1.75 0.642936 1.75 0.875C1.75 1.10706 1.65781 1.32962 1.49372 1.49372C1.32962 1.65781 1.10706 1.75 0.875 1.75L0.875 1.75C0.642936 1.75 0.420376 1.65781 0.256282 1.49372Z" id="Vector" fill="#2C406E" stroke="none" />
        <path d="M0.256282 5.1695C0.0921872 5.00541 0 4.78285 0 4.55078C0 4.31872 0.0921872 4.09616 0.256282 3.93206C0.420376 3.76797 0.642936 3.67578 0.875 3.67578C1.10706 3.67578 1.32962 3.76797 1.49372 3.93206C1.65781 4.09616 1.75 4.31872 1.75 4.55078C1.75 4.78285 1.65781 5.00541 1.49372 5.1695C1.32962 5.33359 1.10706 5.42578 0.875 5.42578C0.642936 5.42578 0.420376 5.33359 0.256282 5.1695Z" id="Vector" fill="#2C406E" stroke="none" />
        <path d="M0.256282 8.84333C0.420376 9.00742 0.642936 9.09961 0.875 9.09961C1.10706 9.09961 1.32962 9.00742 1.49372 8.84333C1.65781 8.67923 1.75 8.45667 1.75 8.22461C1.75 7.99255 1.65781 7.76999 1.49372 7.60589C1.32962 7.4418 1.10706 7.34961 0.875 7.34961C0.642936 7.34961 0.420376 7.4418 0.256282 7.60589C0.0921872 7.76999 0 7.99255 0 8.22461L0 8.22461C0 8.45667 0.0921872 8.67923 0.256282 8.84333Z" id="Vector" fill="#2C406E" stroke="none" />
      </g>
    </g>
  </g>
</svg>