<?xml version="1.0" encoding="utf-8"?>
<svg width="310px" height="310px" viewBox="0 0 310 310" version="1.1" xmlns:xlink="http://www.w3.org/1999/xlink" xmlns="http://www.w3.org/2000/svg">
  <defs>
    <path d="M310 0L310 0L310 310L0 310L0 0L310 0Z" id="path_1" />
    <clipPath id="clip_1">
      <use xlink:href="#path_1" clip-rule="evenodd" fill-rule="evenodd" />
    </clipPath>
  </defs>
  <g id="work-apps" clip-path="url(#clip_1)">
    <path d="M310 0L310 0L310 310L0 310L0 0L310 0Z" id="work-apps" fill="none" stroke="none" />
    <g id="work-apps--work-work-apps-job" transform="translate(10.67913 7.7840986)">
      <path d="M106.027 228.276C108.077 223.505 113.198 220.216 118.256 211.983C134.433 185.645 111.202 153.955 139.251 144.722C144.166 143.104 170.231 137.868 168.586 125.494C167.765 119.31 163.141 121.047 151.621 121.641C150.313 121.709 150.812 121.746 152.787 128.25C154.204 132.914 163.054 127.357 163.78 128.816C164.286 129.834 159.432 132.096 155.616 131.927C153.142 131.817 152.071 131.046 151.304 128.71C149.191 122.286 149.644 121.791 148.016 121.889C116.356 123.805 104.088 145.75 74.853 188.054C69.552 195.725 42.1449 232.847 43.6794 225.094C43.8266 224.353 43.5492 224.607 57.3225 207.21C69.3489 192.019 80.7197 173.456 89.1331 162.181C119.915 120.931 128.295 119.576 162.473 118.425C174.843 118.008 177.274 135.966 150.668 144.438C143.031 146.87 126.79 148.433 127.128 164.337C127.35 174.764 128.936 188.939 125.997 201.909C122.785 216.084 109.35 228.064 106.027 228.276L106.027 228.276ZM145.542 214.033C133.637 226.339 139.034 225.62 124.689 237.891C114.364 246.723 112.972 243.882 97.5434 259.134C96.2988 260.363 95.7113 261.142 95.0696 260.547C93.9133 259.476 97.2613 255.211 97.4737 254.963C103.15 248.299 106.419 246.837 115.499 240.754C136.641 226.59 133.626 219.505 145.717 209.793C163.77 195.292 194.036 221.852 206.369 217.073C210.47 215.484 208.88 211.415 205.309 208.838C199.233 204.451 199.087 204.702 199.406 204.101C199.933 203.11 201.524 204.316 202.623 205.056C205.056 206.691 210.292 209.616 210.469 213.751C210.574 216.225 209.625 217.685 207.324 218.665C189.581 226.207 162.904 196.087 145.542 214.035L145.542 214.033L145.542 214.033ZM100.585 266.519C100.054 271.221 95.8152 294.999 93.4452 294.407C91.2907 293.869 100.904 268.004 97.7573 266.45C77.2244 256.302 62.5971 247.072 45.341 232.449C36.368 224.845 37.1771 222.836 35.6209 224.037C35.5853 224.073 3.7405 248.814 3.03371 249.273C-4.49154 254.155 0.491706 245.123 35.0552 221.881C39.4076 218.955 45.792 236.532 94.5751 262.209C100.941 265.56 100.654 264.718 100.583 266.521L100.584 266.519L100.585 266.519ZM139.64 166.282C140.401 154.019 139.779 152.642 142.856 152.887C197.001 157.204 197.029 156.491 196.827 158.825C195.448 174.795 196.263 174.828 194.036 174.696C181.174 173.935 153.774 171.554 141.514 170.348C139.074 170.108 139.4 170.171 139.64 166.284L139.64 166.282L139.64 166.282ZM143.104 168.756C197.5 172.89 193.969 173.563 194.071 171.796C194.811 158.932 195.59 159.041 193.966 158.931C138.89 155.208 142.23 154.372 142.149 155.786C141.416 168.904 140.313 168.545 143.106 168.758L143.104 168.756L143.104 168.756ZM174.631 61.6621C165.052 61.1367 158.055 60.6515 151.056 60.2485C149.112 60.1369 149.076 60.0362 149.182 58.1281C149.533 51.801 149.076 50.561 151.373 50.7052C189.975 53.148 190.009 52.6489 189.758 55.2994C188.919 64.1716 192.797 62.6588 174.63 61.6621L174.631 61.6621L174.631 61.6621ZM172.298 59.8951C187.815 60.8437 187.777 61.4141 187.814 60.1075C187.946 55.5474 188.485 54.9987 186.93 54.9475C179.717 54.7057 159.255 53.1805 152.434 52.6861C150.49 52.545 151.446 53.7106 150.843 57.4926C150.561 59.2596 149.606 58.5094 172.297 59.8967L172.298 59.8951L172.298 59.8951ZM134.415 185.371C157.397 187.215 198.346 187.544 198.417 189.009C198.452 189.715 197.782 189.722 197.322 189.751C185.954 190.459 143.141 190.348 134.097 186.415C133.942 186.349 133.08 185.264 134.413 185.371L134.415 185.371L134.415 185.371ZM210.647 187.454C211.698 185.188 225.251 194.316 231.36 184.732C232.598 182.788 231.33 181.542 225.775 178.052C213.594 170.398 213.468 170.695 213.935 169.888C214.387 169.107 215.102 169.179 222.983 174.094C230.69 178.899 236.165 181.304 232.562 186.642C226.125 196.182 209.864 189.148 210.648 187.454L210.647 187.454L210.647 187.454ZM217.259 165.717C220.984 165.59 225.637 167.284 230.723 162.183C233.757 159.138 226.793 157.776 215.241 146.525C214.99 146.28 214.609 146.033 214.923 145.605C215.388 144.973 215.976 145.333 219.271 147.833C221.423 149.465 230.96 156.607 232.702 158.542C236.44 162.696 226.541 171.669 216.614 167.053C215.035 166.318 214.361 165.816 217.258 165.717L217.259 165.717L217.259 165.717ZM164.875 73.6095C195.094 75.9066 195.131 75.3765 195.094 77.0381C195.06 78.5928 195.21 78.3711 164.097 75.7671C163.214 75.6912 161.827 75.871 161.941 74.5287C162.073 72.9725 164.875 73.8219 164.875 73.6095L164.875 73.6095ZM162.013 110.438C190.5 112.558 189.688 112.488 190.5 112.629C192.338 112.949 192.267 114.795 190.395 114.857C189.086 114.898 161.482 112.665 161.447 112.665C159.857 112.525 158.556 112.347 158.62 111.394C158.7 110.155 160.105 110.438 162.013 110.438L162.013 110.438ZM192.233 94.7097C193.606 95.1498 193.436 96.7324 192.021 96.83C190.891 96.9075 191.897 97.2206 162.614 94.6027C161.518 94.5051 159.83 94.3563 159.999 93.2589C160.143 92.3227 161.278 92.3909 162.068 92.4498C162.499 92.4823 191.701 94.5376 192.233 94.7081L192.233 94.7097L192.233 94.7097ZM218.564 136.133C221.957 136.056 225.288 135.684 227.931 133.094C230.698 130.381 230.292 130.84 217.788 120.582C216.797 119.77 216.374 116.377 228.639 127.086C230.867 129.03 232.04 130.625 230.513 133.13C224.989 142.194 209.695 136.332 218.567 136.133L218.564 136.133L218.564 136.133ZM150.668 98.1739C143.599 98.1739 142.927 87.3223 150.35 87.3223C157.773 87.3223 158.196 98.1723 150.668 98.1723L150.668 98.1739ZM150.209 88.8785C145.119 88.8785 145.615 96.2674 150.916 96.2302C155.83 96.1961 155.334 88.8786 150.209 88.8786L150.209 88.8785ZM149.219 116.199C142.221 116.165 141.514 105.276 149.042 105.347C156.394 105.417 156.853 116.235 149.219 116.199L149.219 116.199ZM148.83 106.904C143.706 106.904 144.377 114.238 149.465 114.255C154.52 114.272 153.99 106.904 148.83 106.904L148.83 106.904ZM152.576 79.3724C145.649 79.405 144.73 68.6278 152.328 68.555C159.644 68.4852 160.21 79.3337 152.576 79.3709L152.576 79.3724ZM152.647 77.4272C157.736 77.6194 157.418 70.2553 152.258 70.0755C147.311 69.9019 147.416 77.2303 152.647 77.4272L152.647 77.4272ZM133.985 152.322C132.288 178.476 132.395 178.441 131.476 178.441C130.416 178.441 130.659 177.309 130.698 176.602C132.036 152.067 131.333 154.653 133.985 152.32L133.985 152.322L133.985 152.322ZM174.701 41.1277C172.509 40.951 172.898 38.0711 174.772 38.0897C175.588 38.1404 176.217 38.8263 176.198 39.643C176.179 40.4597 175.518 41.1153 174.701 41.1277L174.701 41.1277ZM180.18 39.9606C180.003 41.5881 177.903 41.3401 177.847 39.8552C177.796 38.4757 179.968 38.547 180.18 39.9606L180.18 39.9606ZM203.249 37.0652C193.572 34.4829 178.381 33.3235 154.931 31.5348C153.517 31.4263 152.072 31.3178 150.598 31.2031L149.995 33.8892C156.051 33.6273 164.119 34.4705 174.949 35.6128C176.885 35.8174 178.815 36.0034 180.724 36.1863C189.029 36.9877 196.925 37.7487 203.196 39.7947L203.249 37.0667L203.249 37.0652ZM209.393 57.7329L211.484 57.7639L211.385 59.2364C209.877 81.7067 203.549 175.95 202.553 182.117C202.376 183.213 201.203 182.86 201.175 182.046L201.167 181.844L201.167 181.841L201.159 181.637C201.094 179.718 201.232 177.791 205.295 121.323L206.688 101.956C208.156 81.5471 208.765 69.6865 209.12 62.8014C209.229 60.6701 209.314 59.0178 209.393 57.7328L209.393 57.7329ZM216.729 57.8491L219.049 57.8894C219.111 63.3237 218.504 70.0802 217.743 78.5447C217.283 83.5283 216.862 88.5151 216.478 93.5049C214.876 114.848 214.006 131.898 213.31 145.537C211.326 184.405 210.759 195.52 198.7 199.114C191.134 201.369 183.397 201.758 175.585 201.27C173.413 201.134 171.376 201.01 169.464 200.892L169.462 200.892C144.067 199.33 140.384 199.103 130.661 193.671C128.894 192.682 130.097 190.275 131.616 191.09C137.523 194.261 143.492 196.101 149.924 196.568L154.875 196.929C182.944 198.987 196.378 199.971 203.122 193.728C209.313 187.999 209.868 176.18 210.931 153.513L210.931 153.512C211.089 150.142 211.258 146.532 211.459 142.668C212.168 129.059 216.514 60.5271 216.55 60.4915C216.646 59.6124 216.706 58.7297 216.729 57.8457L216.729 57.8491ZM129.636 52.7558C129.644 51.5329 129.723 50.344 129.872 49.1939L132.626 49.8232C131.092 57.5267 130.493 68.6433 129.641 84.4409C129.227 92.1258 128.753 100.919 128.082 110.968C127.942 113.076 127.849 114.815 127.773 116.253C127.454 122.293 127.417 123.005 125.219 123.233C128.202 74.8852 129.168 60.154 129.483 55.3614C129.627 53.1697 129.635 53.055 129.636 52.7558L129.636 52.7558ZM141.374 51.6987C140.883 51.646 140.426 51.5716 139.412 51.3577C138.733 60.0966 138.183 66.8329 137.692 72.8469C136.54 86.9705 135.712 97.1106 134.303 119.875C135.004 119.92 136.337 119.451 136.388 118.108C137.524 88.4724 139.445 70.525 140.564 60.0702C140.953 56.4308 141.246 53.6997 141.374 51.6987L141.374 51.6987ZM200.043 46.4287C200.75 46.5372 201.167 46.7465 201.104 47.5246C201.051 48.157 200.958 48.1399 199.151 47.7943C195.414 47.0797 184.348 44.964 151.161 44.3083C151.042 44.313 150.924 44.3302 150.809 44.3595C150.408 44.4432 149.955 44.5377 149.924 43.8139C149.893 43.0714 150.419 42.8947 151.09 42.8591C165.793 42.1011 185.332 44.1766 200.042 46.4287L200.043 46.4287L200.043 46.4287Z" id="hand-with-phone" fill="#583CA0" fill-rule="evenodd" stroke="none" />
      <path d="M251.4 124.505C248.468 125.395 245.28 123.552 244.437 120.618C236.755 93.8757 237.408 96.2643 235.354 89.6566C234.331 86.3691 234.649 82.243 240.196 80.8557C281.035 70.6381 276.103 65.6239 281.514 84.213C292.43 121.715 296.422 110.847 251.401 124.505L251.399 124.505L251.4 124.505ZM286.496 109.236C285.895 105.949 283.074 95.8396 282.007 91.9522C277.895 76.9606 277.908 72.6191 272.535 74.0327C261.932 76.8242 251.409 79.8948 240.937 83.1157C237.688 84.1154 236.636 86.0111 237.58 89.3358C237.831 90.2193 245.317 115.917 246.486 119.414C248.213 124.575 253.343 122.101 259.563 120.297C285.721 112.707 286.532 113.193 286.496 109.235L286.496 109.236L286.496 109.236ZM261.261 82.1624C262.25 82.1981 262.102 82.2492 271.97 87.4634C272.962 87.9873 272.54 87.2851 276.917 103.58C278.475 109.376 278.969 110.199 277.058 110.755C263.61 114.671 260.977 115.494 255.815 116.834C253.907 117.33 254.155 116.658 251.291 107.114C245.319 87.2154 245.138 86.8186 246.838 86.2606C253.083 84.2146 259.385 82.5499 261.259 82.1608L261.261 82.1608L261.261 82.1624ZM271.9 91.8111C271.295 89.5156 270.697 90.7106 264.619 92.5179C262.251 93.2232 262.459 93.1798 260.025 84.9539C259.607 83.5388 259.771 83.6969 248.927 87.1456C247.159 87.7083 247.196 87.7811 247.762 89.5481C250.341 97.6081 252.571 105.746 254.796 113.902C255.423 116.202 255.143 115.402 275.685 109.024C277.168 108.564 276.395 108.853 271.903 91.8111L271.9 91.8111L271.9 91.8111ZM270.84 88.8429L260.979 83.7186C261.862 86.3334 262.691 88.6615 263.488 90.9989C263.776 91.8452 263.665 91.6003 270.84 88.8429L270.84 88.8429ZM254.086 100.648C253.973 99.9781 254.616 99.8696 255.04 99.6929C257.866 98.5211 266.774 96.0117 268.223 95.7342C268.789 95.6257 269.521 95.4552 269.708 96.2302C270.009 97.4702 269.097 97.695 256.242 101C255.502 101.19 254.217 101.426 254.086 100.646L254.086 100.648L254.086 100.648ZM255.428 104.819C255.292 104.183 255.815 103.935 256.276 103.759C260.334 102.219 264.513 101.291 268.752 100.366C270.201 100.049 270.375 101.311 269.353 101.638C262.476 103.839 255.758 106.372 255.428 104.819L255.428 104.819ZM258.61 109.59C256.879 109.342 257.093 108.004 258.116 107.683C265.692 105.284 266.74 105.278 267.022 106.304C267.304 107.33 266.951 107.151 258.61 109.591L258.61 109.59Z" id="documents" fill="#FD93A1" fill-rule="evenodd" stroke="none" />
      <path d="M228.425 56.1131C243.8 56.296 246.446 57.2787 246.698 51.2709C247.838 24.2668 246.309 24.321 248.36 24.3024C249.067 24.2962 249.002 24.8326 248.995 25.2572C248.695 50.7454 250.621 58.1994 243.552 58.1281C212.591 57.815 242.916 58.094 208.596 57.6336C205.485 57.5918 202.951 55.2296 202.976 52.1559C203.033 45.3344 203.249 38.5128 203.294 31.6913C203.438 9.8828 199.406 12.7394 230.296 12.9239C235.103 12.9518 235.351 12.9952 235.351 14.2321C235.351 15.0443 234.928 15.2427 234.219 15.1869C226.207 14.5576 218.208 15.0536 210.185 14.9745C203.576 14.9094 205.357 20.2755 205.237 39.2568C205.11 59.4394 202.551 55.8077 228.424 56.1162L228.425 56.1131L228.425 56.1131ZM226.269 19.3905C242.351 20.4135 247.05 34.6564 238.888 43.3194C233.161 49.3954 227.367 47.6346 224.538 49.2218C222.771 50.2138 214.647 54.9087 213.51 53.0751C212.806 51.942 213.575 51.5158 216.408 46.8549C217.29 45.4041 214.243 45.6242 211.354 40.9169C205.396 31.2092 214.393 19.3564 226.269 19.392L226.269 19.3905L226.269 19.3905ZM216.055 51.1655C221.64 49.4682 223.796 46.8255 226.093 46.8177C239.736 46.765 246.066 31.8959 236.025 24.6915C224.437 16.3788 208.649 25.7827 211.919 37.1333C215.046 47.9802 222.559 41.0548 216.055 51.1655L216.055 51.1655ZM256.454 13.8058C256.772 18.4713 252.178 23.095 246.734 23.2423C241.751 23.3771 236.444 19.0014 236.555 13.6632C236.825 0.68975 257.055 1.57325 256.454 13.8027L256.454 13.8058L256.454 13.8058ZM246.946 21.6163C251.506 21.545 255.147 18.0466 255.11 13.6989C255.076 9.59915 251.046 5.9303 246.627 5.99385C235.706 6.15195 235.529 21.793 246.945 21.6163L246.946 21.6163L246.946 21.6163ZM247.689 18.4357C247.23 20.3794 244.956 19.778 245.003 18.3644C245.06 16.6315 247.512 16.5261 247.689 18.4357L247.689 18.4357ZM245.003 12.2156C245.003 10.9074 244.826 8.0538 246.099 7.9391C247.194 7.8399 247.633 8.96365 247.619 9.91845C247.548 14.4445 247.512 16.0115 246.205 15.9635C244.721 15.9061 245.004 13.9485 245.004 12.2155L245.003 12.2155L245.003 12.2156Z" id="message" fill="#FD93A1" fill-rule="evenodd" stroke="none" />
      <path d="M141.832 51.7312C139.569 51.5235 140.829 51.7901 106.735 43.9549C103.376 43.183 101.612 39.9264 102.528 36.6032C103.804 31.9734 109.556 4.68565 109.88 3.76804C110.818 1.11135 113.485 -0.474305 116.207 0.127095C159.368 9.6813 156.22 6.31315 152.86 21.1575C147.033 46.889 147.309 52.235 141.832 51.7312L141.832 51.7312ZM152.612 14.1252C152.702 9.1419 151.615 10.2347 117.338 2.5668C114.192 1.8631 111.932 3.30925 111.259 6.48985C103.139 44.9113 100.69 40.7418 115.571 44.0619C142.856 50.1472 143.882 51.8382 145.508 45.0508C145.508 44.9795 152.584 15.7496 152.612 14.1236L152.612 14.1252L152.612 14.1252ZM120.307 34.9773C120.448 31.8308 122.111 25.8834 125.149 26.5655C127.944 27.1932 127.703 33.1809 124.761 37.5224C123.104 39.9652 120.624 39.7141 120.307 34.9773L120.307 34.9773ZM121.897 34.8006C122.018 41.1277 125.851 34.9432 125.254 29.5693C124.862 26.0353 121.833 31.4758 121.897 34.8006L121.897 34.8006ZM132.677 28.4394C135.824 28.503 141.518 30.1723 141.053 33.2816C140.599 36.3227 133.113 35.743 129.142 31.9378C127.661 30.5195 128.824 28.3604 132.676 28.4394L132.677 28.4394L132.677 28.4394ZM137.166 33.5994C138.51 33.387 139.15 33.3886 139.251 32.8213C139.472 31.5859 134.869 29.8267 131.546 29.9228C128.79 30.0018 129.707 32.6802 137.166 33.5994L137.166 33.5994ZM128.435 22.8191C127.734 25.6478 121.404 25.2557 117.266 22.1479C115.147 20.5561 115.776 18.6992 118.185 18.0838C121.041 17.3553 129.291 19.3579 128.435 22.8206L128.435 22.8191ZM124.158 22.9958C130.025 22.9958 123.805 19.065 118.681 19.4618C115.995 19.6695 118.045 22.537 124.158 22.9958L124.158 22.9958ZM135.469 14.1949C140.805 15.2908 133.866 32.5314 130.875 24.7628C129.893 22.2146 131.687 13.4184 135.469 14.1949L135.469 14.1949ZM135.574 18.5783C135.683 12.3938 131.933 18.4388 132.11 23.915C132.198 26.6368 135.47 24.5164 135.574 18.5783L135.574 18.5783ZM127.658 18.3659C123.241 18.2962 123.452 12.3923 127.376 12.3923C131.194 12.3923 132.147 18.4372 127.658 18.3659L127.658 18.3659ZM127.305 14.2306C126.846 14.4429 126.031 14.4429 126.104 15.2908C126.173 16.1045 126.705 16.5974 127.553 16.6346C129.143 16.7028 129.25 14.4429 127.305 14.2321L127.305 14.2306ZM139.958 28.4394C135.574 28.4239 135.681 22.568 139.392 22.4657C143.386 22.3572 144.411 28.4565 139.958 28.4394L139.958 28.4394ZM139.64 24.304C139.004 24.4094 138.296 24.445 138.332 25.3285C138.367 26.212 139.004 26.5964 139.781 26.6724C141.478 26.8382 141.443 24.5179 139.641 24.304L139.64 24.304ZM117.656 30.6295C113.485 30.6125 113.132 24.7085 117.162 24.6558C121.333 24.6016 121.827 30.6466 117.656 30.6295L117.656 30.6295ZM117.444 28.754C119.318 28.8842 119.034 26.5112 117.303 26.5282C115.323 26.5484 115.748 28.6362 117.444 28.7556L117.444 28.754ZM126.527 37.3457C126.491 33.387 132.761 33.635 132.783 37.9114C132.8 41.4811 126.563 41.3757 126.527 37.3457L126.527 37.3457ZM129.495 36.3568C127.516 36.5691 128.046 38.6229 129.672 38.7252C131.439 38.8352 131.262 36.3568 129.495 36.3568L129.495 36.3568Z" id="slack" fill="#FD93A1" fill-rule="evenodd" stroke="none" />
      <path d="M121.083 101.744C121.861 104.854 120.27 107.999 116.948 108.672C85.3837 115.06 78.3823 119.982 76.5487 112.099C73.2534 97.9274 73.5277 97.8236 69.0916 80.1474C68.3817 77.3202 69.6233 73.0546 73.4394 72.371C122.418 63.6074 108.863 52.8937 121.083 101.744L121.083 101.744ZM118.963 101.779C118.786 99.7998 112.878 73.1166 112.354 70.8179C111.032 65.024 107.16 67.0762 99.6297 68.6635C71.3577 74.617 72.4148 74.8123 71.6724 76.4724C70.4711 79.1585 70.9361 78.6269 75.5257 98.2095C80.1633 118.003 76.0201 116.056 101.539 110.191C117.692 106.479 119 107.223 118.964 101.779L118.963 101.779L118.963 101.779ZM84.6784 105.561C80.402 105.456 81.2963 104.577 76.7967 85.839C76.2278 83.4722 77.2555 81.7021 79.6239 81.1378C100.509 76.1701 108.82 73.2205 109.773 77.6039C113.417 94.3563 115.945 98.408 111.152 99.7642C108.741 100.446 89.0246 104.995 84.6784 105.561L84.6784 105.561ZM111.893 95.9822C110.656 90.1852 109.874 84.8858 107.899 78.7338C107.332 76.9668 104.832 77.0056 104.046 78.3091C95.6757 92.2126 95.8787 91.8871 93.5832 90.4673C81.1615 82.7871 81.1398 82.1919 79.5867 83.2211C78.8427 83.714 78.8799 84.4936 79.0209 85.3058C81.876 101.674 82.3813 104.331 85.207 103.332C85.703 103.156 85.6208 103.193 82.2031 88.6631C81.5288 85.8003 85.2767 89.0661 95.1766 94.8833C95.6664 95.1716 96.1314 95.7327 96.7297 94.8476C102.795 85.8839 105.82 80.2156 106.591 83.8907C109.588 98.1987 109.454 98.0638 109.737 98.1693C110.407 98.3459 111.927 97.4268 111.892 95.9775L111.893 95.9822L111.893 95.9822ZM105.284 84.3897C94.7875 99.0574 98.5742 98.5909 89.9097 93.2263C83.1625 89.049 83.4384 88.8801 83.7593 90.2224C86.9089 103.379 86.3385 103.472 88.4604 103.018C91.4628 102.374 88.8789 102.887 106.735 99.2356C108.995 98.7738 108.395 99.059 105.284 84.3913L105.284 84.3897ZM102.35 77.8177C95.6338 78.7354 89.378 80.3257 82.7688 82.1996C86.9399 84.6734 90.694 86.9814 94.4682 89.1978C95.206 89.6319 94.9642 89.5156 102.35 77.8162L102.35 77.8177Z" id="mail" fill="#FD93A1" fill-rule="evenodd" stroke="none" />
    </g>
  </g>
</svg>